<svg width="18" height="18" viewBox="0 0 18 18" fill="none" xmlns="http://www.w3.org/2000/svg">
<path d="M16.204 0H1.27035C0.564599 0 0 0.550085 0 1.23769V15.8149C0 16.475 0.564599 17.0526 1.27035 17.0526H16.1475C16.8533 17.0526 17.4179 16.5025 17.4179 15.8149V1.21019C17.4743 0.550085 16.9097 0 16.204 0ZM5.16608 14.4947H2.59715V6.38099H5.16608V14.4947ZM3.8675 5.25331C3.0206 5.25331 2.37131 4.59321 2.37131 3.79559C2.37131 2.99796 3.04883 2.33786 3.8675 2.33786C4.68617 2.33786 5.36369 2.99796 5.36369 3.79559C5.36369 4.59321 4.74263 5.25331 3.8675 5.25331ZM14.9054 14.4947H12.3365V10.5616C12.3365 9.62649 12.3083 8.38879 10.9814 8.38879C9.62641 8.38879 9.4288 9.43396 9.4288 10.4791V14.4947H6.85988V6.38099H9.37234V7.50866H9.40057C9.76756 6.84856 10.5862 6.18846 11.8566 6.18846C14.482 6.18846 14.9619 7.83871 14.9619 10.0941V14.4947H14.9054Z" fill="#CDCED6"/>
</svg>
