<svg width="18" height="17" viewBox="0 0 18 17" fill="none" xmlns="http://www.w3.org/2000/svg">
<path d="M8.61635 11.5521C10.3913 11.5521 11.8301 10.1437 11.8301 8.4064C11.8301 6.6691 10.3913 5.26074 8.61635 5.26074C6.84144 5.26074 5.40259 6.6691 5.40259 8.4064C5.40259 10.1437 6.84144 11.5521 8.61635 11.5521Z" fill="#CDCED6"/>
<path d="M12.107 0H5.06997C2.27179 0 0 2.22365 0 4.96255V11.7962C0 14.5893 2.27179 16.813 5.06997 16.813H12.0516C14.9052 16.813 17.177 14.5893 17.177 11.8505V4.96255C17.177 2.22365 14.9052 0 12.107 0ZM8.61618 12.5284C6.26128 12.5284 4.40506 10.6573 4.40506 8.4065C4.40506 6.15573 6.28898 4.2846 8.61618 4.2846C10.9157 4.2846 12.7996 6.15573 12.7996 8.4065C12.7996 10.6573 10.9434 12.5284 8.61618 12.5284ZM14.4342 4.66425C14.1571 4.96255 13.7416 5.12525 13.2706 5.12525C12.855 5.12525 12.4394 4.96255 12.107 4.66425C11.8022 4.36596 11.636 3.98631 11.636 3.52531C11.636 3.0643 11.8022 2.71177 12.107 2.38636C12.4117 2.06095 12.7996 1.89824 13.2706 1.89824C13.6862 1.89824 14.1294 2.06095 14.4342 2.35924C14.7112 2.71177 14.9052 3.11854 14.9052 3.55242C14.8775 3.98631 14.7112 4.36596 14.4342 4.66425Z" fill="#CDCED6"/>
<path d="M13.2985 2.87402C12.9384 2.87402 12.6336 3.17232 12.6336 3.52485C12.6336 3.87738 12.9384 4.17567 13.2985 4.17567C13.6587 4.17567 13.9634 3.87738 13.9634 3.52485C13.9634 3.17232 13.6864 2.87402 13.2985 2.87402Z" fill="#CDCED6"/>
</svg>
