<svg width="35" height="35" viewBox="0 0 35 35" fill="none" xmlns="http://www.w3.org/2000/svg">
<path d="M29.5312 21.6565L28.6563 21.1643L29.6953 20.5627C30.7344 19.9065 31.3359 18.8127 31.2812 17.6096C31.2266 16.4065 30.625 15.3127 29.5312 14.7112L27.8906 13.7815L29.6406 12.6877C30.6797 12.0315 31.2812 10.9377 31.2266 9.73462C31.1719 8.53149 30.5703 7.43774 29.4766 6.83618L19.25 1.09399C18.2109 0.492431 16.9531 0.547119 15.9141 1.09399L5.41406 7.21899C4.375 7.82056 3.71875 8.91431 3.71875 10.1174C3.71875 11.3206 4.375 12.4143 5.41406 13.0159L7.10938 14.0002L5.41406 14.9846C4.375 15.5862 3.71875 16.6799 3.71875 17.8831C3.71875 19.0862 4.32031 20.1799 5.41406 20.7815L6.39844 21.3284L5.46875 21.8752C4.42969 22.4768 3.77344 23.5706 3.77344 24.7737C3.77344 25.9768 4.375 27.0706 5.46875 27.6721L15.9141 33.6877C16.4609 34.0159 17.0078 34.1252 17.6094 34.1252C18.2109 34.1252 18.8125 33.9612 19.3594 33.6331L29.6953 27.2893C30.7344 26.6331 31.3359 25.5393 31.2812 24.3362C31.2266 23.2971 30.625 22.2034 29.5312 21.6565ZM5.63281 10.1174C5.63281 9.57056 5.90625 9.13306 6.34375 8.85962L16.8438 2.78931C17.0625 2.67993 17.3359 2.57056 17.5547 2.57056C17.7734 2.57056 18.0469 2.62524 18.2656 2.73462L28.5469 8.47681C28.9844 8.75024 29.2578 9.18774 29.3125 9.73462C29.3125 10.2815 29.0391 10.719 28.6016 10.9924L18.3203 17.3909C17.8828 17.6643 17.2812 17.6643 16.8438 17.3909L6.39844 11.3752C5.90625 11.1565 5.63281 10.6643 5.63281 10.1174ZM5.63281 17.9377C5.63281 17.3909 5.90625 16.9534 6.34375 16.6799L9.02344 15.1487L15.8594 19.0862C16.4062 19.4143 16.9531 19.5237 17.5547 19.5237C18.1562 19.5237 18.7578 19.3596 19.3047 19.0315L26.0312 14.8752L28.6016 16.2971C29.0391 16.5706 29.3125 17.0081 29.3672 17.5549C29.3672 18.1018 29.0938 18.5393 28.6563 18.8127L18.3203 25.2659C17.8828 25.5393 17.2812 25.5393 16.8438 25.2659L6.39844 19.2502C5.90625 18.9768 5.63281 18.4846 5.63281 17.9377ZM28.6563 25.8127L18.3203 32.2112C17.8828 32.4846 17.2812 32.4846 16.8438 32.2112L6.39844 26.1956C5.96094 25.9221 5.6875 25.4846 5.6875 24.9377C5.6875 24.3909 5.96094 23.9534 6.39844 23.6799L8.3125 22.5862L15.8594 26.9612C16.4062 27.2893 16.9531 27.3987 17.5547 27.3987C18.1562 27.3987 18.7578 27.2346 19.3047 26.9065L26.7969 22.2581L28.6563 23.2971C29.0938 23.5706 29.3672 24.0081 29.4219 24.5549C29.3672 25.0471 29.0938 25.5393 28.6563 25.8127Z" fill="white"/>
</svg>
