<svg width="18" height="14" viewBox="0 0 18 14" fill="none" xmlns="http://www.w3.org/2000/svg">
<path d="M15.4829 2.28407L16.5507 1.03821C16.8598 0.700793 16.9441 0.44124 16.9722 0.311464C16.1292 0.778659 15.3424 0.934391 14.8366 0.934391H14.6399L14.5275 0.83057C13.8531 0.285508 13.0101 0 12.1109 0C10.144 0 8.59849 1.50541 8.59849 3.24441C8.59849 3.34823 8.59849 3.50397 8.62659 3.60779L8.71089 4.12689L8.1208 4.10094C4.52404 3.99712 1.57358 1.14203 1.09589 0.648882C0.309096 1.94665 0.75869 3.1925 1.23638 3.97116L2.19177 5.42466L0.674391 4.646C0.702491 5.73612 1.15209 6.59265 2.02317 7.21557L2.78186 7.73468L2.02317 8.02019C2.50087 9.34391 3.56865 9.88897 4.35544 10.0966L5.39513 10.3562L4.41164 10.9791C2.83806 12.0173 0.871089 11.9394 0 11.8616C1.77028 13.0036 3.87775 13.2632 5.33893 13.2632C6.43482 13.2632 7.24971 13.1593 7.44641 13.0815C15.3143 11.3684 15.6796 4.8796 15.6796 3.58183V3.40014L15.8482 3.29632C16.8036 2.46575 17.197 2.02451 17.4218 1.76496C17.3375 1.79092 17.2251 1.84283 17.1127 1.86878L15.4829 2.28407Z" fill="#CDCED6"/>
</svg>
